<?xml version="1.0" encoding="utf-8"?>

<!DOCTYPE svg PUBLIC "-//W3C//DTD SVG 1.1//EN" "http://www.w3.org/Graphics/SVG/1.1/DTD/svg11.dtd">
<svg version="1.1" id="id_arrow" xmlns="http://www.w3.org/2000/svg" xmlns:xlink="http://www.w3.org/1999/xlink" x="0px" y="0px"
	 width="514.08px" height="514.08px" viewBox="0 0 514.08 514.08" style="enable-background:new 0 0 514.08 514.08;"
	 xml:space="preserve">

<style>
	path{
		-webkit-transition:.55s cubic-bezier(.52,.01,.16,1);-moz-transition:.55s cubic-bezier(.52,.01,.16,1);transition:.55s cubic-bezier(.52,.01,.16,1);
		cursor:pointer;pointer-events:none;
	}
	
	.background{fill:none;}
	svg#id_arrow:hover .background{fill:#333;}

	.border{fill:#333;}
	svg#id_arrow:hover .border{fill:#000;}

	.theArrow{fill:#333;}
	svg#id_arrow:hover .theArrow{fill:#fff;}

</style>

<path class="background" d="M257.04,514.64c-139.633,0-257.6-117.967-257.6-257.6S117.407-0.56,257.04-0.56
	c139.634,0,257.601,117.967,257.601,257.6S396.674,514.64,257.04,514.64z"/>

<path class="border" d="M514.08,257.04C514.08,117.706,396.375,0,257.04,0C117.706,0,0,117.706,0,257.04s117.706,257.04,257.04,257.04
	C396.375,514.08,514.08,396.374,514.08,257.04z M257.04,489.6c-126.06,0-232.56-106.5-232.56-232.56
	c0-126.06,106.5-232.56,232.56-232.56C383.1,24.48,489.6,130.98,489.6,257.04C489.6,383.1,383.1,489.6,257.04,489.6z"/>

<path class="theArrow" d="M265.693,174.946c-4.779-4.78-12.527-4.78-17.307,0l-110.16,110.16c-4.78,4.779-4.78,12.526,0,17.307
	c4.778,4.78,12.526,4.78,17.307,0L257.04,200.907l101.507,101.506c2.394,2.393,5.521,3.586,8.653,3.586
	c3.134,0,6.262-1.193,8.653-3.586c4.78-4.78,4.78-12.527,0-17.307L265.693,174.946z"/>

</svg>
