<?xml version="1.0" encoding="utf-8"?>
<!-- Generator: Adobe Illustrator 16.0.0, SVG Export Plug-In . SVG Version: 6.00 Build 0)  -->
<!DOCTYPE svg PUBLIC "-//W3C//DTD SVG 1.1//EN" "http://www.w3.org/Graphics/SVG/1.1/DTD/svg11.dtd">
<svg version="1.1" id="Layer_1" xmlns="http://www.w3.org/2000/svg" xmlns:xlink="http://www.w3.org/1999/xlink" x="0px" y="0px" width="48px" height="100px" viewBox="0 0 48 100" style="enable-background:new 0 0 48 100;" xml:space="preserve">
	<g>
		<path d="M42.782,59.672H5.218C2.341,59.672,0,62.014,0,64.891v3.003c0,2.878,2.341,5.22,5.218,5.22h37.564
			c2.877,0,5.218-2.343,5.218-5.22v-3.003C48,62.014,45.659,59.672,42.782,59.672z M44.152,67.894c0,0.756-0.614,1.369-1.369,1.369
			H5.218c-0.754,0-1.369-0.613-1.369-1.369v-3.003c0-0.755,0.615-1.368,1.369-1.368h37.564c0.754,0,1.368,0.613,1.368,1.368v3.003
			H44.152z"/>
		<path d="M46.075,81.056c-1.062,0-1.925,0.862-1.925,1.926v3.003c0,0.754-0.614,1.367-1.368,1.367H5.218
			c-0.754,0-1.369-0.613-1.369-1.367v-3.003c0-1.062-0.861-1.926-1.924-1.926S0,81.918,0,82.98v3.003
			c0,2.877,2.341,5.218,5.218,5.218h37.564c2.877,0,5.218-2.341,5.218-5.218V82.98C48,81.918,47.139,81.056,46.075,81.056z"/>
		<path d="M1.925,57.371h44.15c0.575,0,1.116-0.256,1.483-0.698c0.366-0.441,0.514-1.024,0.405-1.588
			c-0.032-0.172-3.532-17.203-23.965-17.203c-20.433,0-23.931,17.031-23.964,17.203c-0.108,0.562,0.041,1.146,0.405,1.588
			C0.808,57.114,1.35,57.371,1.925,57.371z M18.647,52.078c0-0.129,0.104-0.233,0.233-0.233s0.234,0.105,0.234,0.233
			C19.113,52.335,18.647,52.335,18.647,52.078z M38.121,52.078c0-0.129,0.104-0.233,0.232-0.233s0.233,0.105,0.233,0.233
			C38.587,52.335,38.121,52.335,38.121,52.078z M35.616,45.834c0,0.257-0.466,0.257-0.466,0c0-0.129,0.104-0.233,0.232-0.233
			C35.512,45.602,35.616,45.706,35.616,45.834z M24,41.73c4.339,0,7.75,0.87,10.451,2.168c-0.723,0.35-1.225,1.082-1.225,1.937
			c0,1.189,0.969,2.157,2.157,2.157c1.19,0,2.157-0.969,2.157-2.157c0-0.022-0.006-0.046-0.007-0.07
			c3.341,2.516,5.084,5.656,5.929,7.759h-3.516c0.349-0.384,0.566-0.887,0.566-1.443c0-1.191-0.969-2.158-2.158-2.158
			c-1.19,0-2.158,0.969-2.158,2.158c0,0.558,0.219,1.061,0.566,1.443H20.472c0.349-0.384,0.566-0.887,0.566-1.443
			c0-1.191-0.968-2.158-2.157-2.158c-1.188,0-2.157,0.969-2.157,2.158c0,0.558,0.218,1.061,0.566,1.443H4.538
			C6.145,49.521,10.95,41.73,24,41.73z"/>
		<path d="M9.883,47.859c-1.191,0-2.158,0.969-2.158,2.157c0,1.19,0.968,2.157,2.158,2.157s2.157-0.969,2.157-2.157
			C12.041,48.827,11.073,47.859,9.883,47.859z M9.649,50.018c0-0.129,0.105-0.232,0.233-0.232c0.129,0,0.233,0.104,0.233,0.232
			C10.116,50.274,9.649,50.274,9.649,50.018z"/>
		<path d="M18.647,45.834c0-1.19-0.968-2.157-2.158-2.157c-1.189,0-2.157,0.968-2.157,2.157s0.968,2.157,2.157,2.157
			C17.679,47.992,18.647,47.023,18.647,45.834z M16.256,45.834c0-0.129,0.104-0.233,0.233-0.233c0.129,0,0.234,0.104,0.234,0.233
			C16.723,46.092,16.256,46.092,16.256,45.834z"/>
		<path d="M28.949,52.175c1.191,0,2.158-0.969,2.158-2.157c0-1.189-0.969-2.157-2.158-2.157s-2.157,0.969-2.157,2.157
			C26.791,51.206,27.759,52.175,28.949,52.175z M28.949,49.783c0.129,0,0.234,0.104,0.234,0.232c0,0.258-0.468,0.258-0.468,0
			C28.715,49.889,28.82,49.783,28.949,49.783z"/>
		<path d="M2.049,79.117l31.956,6.288c0.123,0.024,0.248,0.037,0.371,0.037c0.328,0,0.651-0.084,0.94-0.246l11.203-6.289
			c0.764-0.429,1.142-1.317,0.92-2.164c-0.221-0.847-0.985-1.438-1.861-1.438H2.421c-0.991,0-1.819,0.752-1.915,1.737
			C0.409,78.028,1.077,78.926,2.049,79.117z M38.219,79.153l-4.166,2.34l-11.885-2.34H38.219z"/>
		<path d="M22.624,17.722c0.919,1.221,1.645,2.184,1.645,4.269c0,2.083-0.726,3.046-1.645,4.264
			c-1.043,1.384-2.228,2.952-2.228,6.003c0,0.797,0.646,1.442,1.443,1.442c0.797,0,1.442-0.646,1.442-1.442
			c0-2.083,0.726-3.046,1.645-4.264c1.045-1.384,2.229-2.952,2.229-6.003c0-3.053-1.184-4.62-2.229-6.005
			c-0.919-1.221-1.645-2.184-1.645-4.269s0.726-3.048,1.647-4.269c1.043-1.384,2.227-2.954,2.227-6.005
			C27.154,0.645,26.508,0,25.712,0s-1.443,0.646-1.443,1.443c0,2.084-0.726,3.048-1.645,4.267c-1.044,1.385-2.228,2.954-2.228,6.006
			C20.396,14.767,21.578,16.337,22.624,17.722z"/>
		<path d="M14.085,32.782c0,0.798,0.646,1.442,1.443,1.442c0.797,0,1.442-0.646,1.442-1.442
			c0-2.082,0.727-3.045,1.645-4.265c1.043-1.383,2.228-2.95,2.228-6.002s-1.183-4.619-2.228-6.005
			c-0.918-1.22-1.645-2.184-1.645-4.269s0.727-3.048,1.646-4.269c1.043-1.385,2.227-2.954,2.227-6.005
			c0-0.798-0.646-1.443-1.442-1.443s-1.443,0.646-1.443,1.443c0,2.085-0.726,3.049-1.645,4.268c-1.044,1.385-2.228,2.954-2.228,6.005
			c0,3.052,1.184,4.621,2.228,6.006c0.919,1.22,1.645,2.183,1.645,4.268c0,2.083-0.726,3.046-1.645,4.265
			C15.27,28.164,14.085,29.732,14.085,32.782z"/>
		<path d="M29.384,18.249c0.919,1.22,1.646,2.183,1.646,4.268c0,2.083-0.727,3.046-1.646,4.265
			c-1.044,1.384-2.229,2.952-2.229,6.002c0,0.798,0.648,1.442,1.443,1.442c0.797,0,1.443-0.646,1.443-1.442
			c0-2.082,0.727-3.045,1.645-4.265c1.043-1.383,2.229-2.95,2.229-6.002s-1.184-4.619-2.229-6.005
			c-0.918-1.22-1.645-2.184-1.645-4.269s0.727-3.048,1.646-4.269c1.043-1.385,2.227-2.953,2.227-6.005
			c0-0.798-0.646-1.442-1.443-1.442s-1.443,0.646-1.443,1.442c0,2.085-0.725,3.048-1.645,4.267c-1.045,1.386-2.229,2.955-2.229,6.006
			C27.154,15.294,28.338,16.864,29.384,18.249z"/>
	</g>
</svg>
