<?xml version="1.0" encoding="utf-8"?>
<!-- Generator: Adobe Illustrator 16.0.0, SVG Export Plug-In . SVG Version: 6.00 Build 0)  -->
<!DOCTYPE svg PUBLIC "-//W3C//DTD SVG 1.1//EN" "http://www.w3.org/Graphics/SVG/1.1/DTD/svg11.dtd">
<svg version="1.1" id="Layer_1" xmlns="http://www.w3.org/2000/svg" xmlns:xlink="http://www.w3.org/1999/xlink" x="0px" y="0px" width="48px" height="100px" viewBox="0 0 48 100" style="enable-background:new 0 0 48 100;" xml:space="preserve">
	<g>
		<circle cx="11.006" cy="9.525" r="1.401"/>
		<circle cx="17.693" cy="10.928" r="1.401"/>
		<circle cx="20.499" cy="6.722" r="1.402"/>
		<circle cx="26.546" cy="10.928" r="1.401"/>
		<circle cx="30.026" cy="6.722" r="1.402"/>
		<circle cx="35.88" cy="10.928" r="1.401"/>
		<path d="M7.983,17.674h31.908c2.354,0,4.456-1.312,5.49-3.423c1.039-2.124,0.783-4.604-0.67-6.478
			C39.364,0.884,30.8,0,23.938,0C17.077,0,8.511,0.883,3.162,7.773c-1.453,1.871-1.709,4.354-0.668,6.478
			C3.526,16.361,5.63,17.674,7.983,17.674z M6.021,9.994c3.469-4.469,8.828-6.375,17.917-6.375c9.092,0,14.448,1.906,17.918,6.375
			c0.608,0.783,0.712,1.779,0.274,2.666c-0.426,0.875-1.264,1.396-2.238,1.396H7.983c-0.976,0-1.813-0.522-2.241-1.396
			C5.309,11.773,5.413,10.777,6.021,9.994z"/>
		<path d="M39.892,40.346H7.983c-2.354,0-4.457,1.313-5.491,3.424c-1.04,2.125-0.784,4.604,0.668,6.477
			c5.349,6.893,13.913,7.775,20.776,7.775s15.427-0.883,20.775-7.774c1.451-1.872,1.709-4.353,0.668-6.476
			C44.348,41.659,42.245,40.346,39.892,40.346z M41.855,48.025c-3.47,4.469-8.826,6.377-17.918,6.377
			c-9.091,0-14.449-1.906-17.917-6.375c-0.608-0.781-0.711-1.779-0.277-2.666c0.428-0.875,1.265-1.396,2.241-1.396h31.908
			c0.976,0,1.812,0.521,2.239,1.396C42.567,46.248,42.464,47.244,41.855,48.025z"/>
		<path d="M44.415,34.198H3.46c-1,0-1.809,0.81-1.809,1.81s0.81,1.809,1.809,1.809h40.955c1,0,1.811-0.809,1.811-1.809
			S45.415,34.198,44.415,34.198z"/>
		<path d="M5.873,20.23c-1,0-1.809,0.809-1.809,1.809s0.81,1.811,1.809,1.811H22.94c1,0,1.809-0.811,1.809-1.811
			S23.94,20.23,22.94,20.23H5.873z"/>
		<path d="M30.036,20.23c-0.998,0-1.81,0.809-1.81,1.809s0.812,1.811,1.81,1.811h11.967c0.998,0,1.81-0.811,1.81-1.811
			s-0.812-1.809-1.81-1.809H30.036z"/>
		<path d="M45.63,28.282c-0.932,0-1.308-0.293-1.991-0.825c-0.86-0.669-2.039-1.587-4.212-1.587
			c-2.172,0-3.352,0.918-4.211,1.587c-0.686,0.532-1.062,0.825-1.991,0.825s-1.306-0.293-1.986-0.825
			c-0.86-0.67-2.038-1.587-4.212-1.587c-2.169,0-3.348,0.918-4.208,1.587c-0.682,0.532-1.058,0.825-1.985,0.825
			c-0.929,0-1.304-0.293-1.987-0.825c-0.86-0.67-2.039-1.587-4.209-1.587c-2.171,0-3.349,0.918-4.209,1.587
			c-0.682,0.532-1.058,0.825-1.986,0.825c-0.927,0-1.304-0.293-1.985-0.825c-0.86-0.67-2.039-1.587-4.21-1.587
			c-1,0-1.809,0.81-1.809,1.81s0.81,1.81,1.809,1.81c0.928,0,1.304,0.294,1.985,0.825c0.86,0.67,2.039,1.586,4.209,1.586
			s3.349-0.918,4.208-1.586c0.683-0.531,1.059-0.825,1.987-0.825c0.927,0,1.304,0.294,1.986,0.825c0.86,0.67,2.039,1.586,4.21,1.586
			c2.17,0,3.348-0.918,4.209-1.588c0.681-0.529,1.058-0.823,1.982-0.823c0.93,0,1.307,0.294,1.989,0.825
			c0.858,0.67,2.038,1.586,4.209,1.586c2.173,0,3.351-0.918,4.213-1.586c0.685-0.531,1.062-0.825,1.989-0.825s1.307,0.294,1.99,0.825
			c0.86,0.668,2.039,1.586,4.211,1.586c1,0,1.812-0.809,1.812-1.809S46.628,28.282,45.63,28.282z"/>
	</g>
</svg>
