<?xml version="1.0" encoding="utf-8"?>

<!DOCTYPE svg PUBLIC "-//W3C//DTD SVG 1.1//EN" "http://www.w3.org/Graphics/SVG/1.1/DTD/svg11.dtd">
<svg version="1.1" id="Layer_1" xmlns="http://www.w3.org/2000/svg" xmlns:xlink="http://www.w3.org/1999/xlink" x="0px" y="0px"
	 width="159.734px" height="382.592px" viewBox="399.36 34.048 159.734 382.592"
	 enable-background="new 399.36 34.048 159.734 382.592" xml:space="preserve">


<path d="M399.36,183.68v80.64c0,44.352,36.289,80.64,80.64,80.64s80.64-36.288,80.64-80.64v-80.64
	c0-44.352-36.288-80.64-80.64-80.64S399.36,139.328,399.36,183.68z M480,120.96c34.496,0,62.72,28.224,62.72,62.72v80.64
	c0,34.497-28.224,62.72-62.72,62.72s-62.72-28.224-62.72-62.72v-80.64C417.28,149.184,445.504,120.96,480,120.96z"/>

<!-- scroll wheel -->
<path d="M480,197.12c4.928,0,8.96-4.032,8.96-8.96v-26.88c0-4.928-4.032-8.96-8.96-8.96s-8.96,4.032-8.96,8.96v26.88
	C471.04,193.088,475.072,197.12,480,197.12z">

	<animateTransform id="id_mouseWheel"
		 attributeName="transform"
		 attributeType="XML"
		 type="translate"
		 dur="3s"
		 values="0,20;0,0;0,0;0,0;0,0;0,0;0,20;0,0;0,0;0,0;0,0;0,0;0,20"
		 repeatCount="indefinite"/>

</path>

<path d="M473.729,413.952c1.791,1.792,4.031,2.688,6.271,2.688s4.48-0.896,6.271-2.688l22.4-22.4c3.584-3.584,3.584-8.96,0-12.544
	s-8.96-3.584-12.544,0L480,395.136l-16.128-16.128c-3.584-3.584-8.96-3.584-12.544,0s-3.584,8.96,0,12.544L473.729,413.952z"/>

<path d="M473.729,34.048l-22.4,22.4c-3.584,3.584-3.584,8.96,0,12.544c1.792,1.792,4.032,2.688,6.271,2.688
	c2.24,0,4.48-0.896,6.272-2.688L480,52.864l16.128,16.128c1.792,1.792,4.032,2.688,6.272,2.688c2.239,0,4.479-0.896,6.271-2.688
	c3.584-3.584,3.584-8.96,0-12.544l-22.4-22.4C482.688,30.464,477.312,30.464,473.729,34.048z"/>

</svg>
