<?xml version="1.0" encoding="utf-8"?>
<!-- Generator: Adobe Illustrator 16.0.0, SVG Export Plug-In . SVG Version: 6.00 Build 0)  -->
<!DOCTYPE svg PUBLIC "-//W3C//DTD SVG 1.1//EN" "http://www.w3.org/Graphics/SVG/1.1/DTD/svg11.dtd">
<svg version="1.1" id="Layer_1" xmlns="http://www.w3.org/2000/svg" xmlns:xlink="http://www.w3.org/1999/xlink" x="0px" y="0px" width="48px" height="100px" viewBox="0 0 48 100" style="enable-background:new 0 0 48 100;" xml:space="preserve">
	<g>
		<path d="M43.406,30.051H4.527c-0.732,0-1.332,0.6-1.332,1.332v6.392c0,2.196,1.797,3.994,3.995,3.994h33.553
			c2.196,0,3.993-1.798,3.993-3.994v-6.392C44.738,30.65,44.139,30.051,43.406,30.051z M42.075,37.774
			c0,0.731-0.599,1.331-1.331,1.331H7.19c-0.732,0-1.332-0.6-1.332-1.331v-5.061h36.216L42.075,37.774L42.075,37.774z"/>
		<path d="M43.872,20.266H4.061C1.864,20.266,0,22.063,0,24.326c0,2.196,1.797,4.061,4.061,4.061h39.878
			c2.197,0,4.061-1.797,4.061-4.061C47.934,22.063,46.137,20.266,43.872,20.266z M43.872,25.657H4.061
			c-0.732,0-1.398-0.599-1.398-1.397c0-0.732,0.599-1.398,1.398-1.398h39.878c0.73,0,1.396,0.599,1.396,1.398
			C45.271,25.059,44.671,25.657,43.872,25.657z"/>
		<path d="M4.527,18.002h38.879c0.732,0,1.332-0.533,1.332-1.332c0-9.054-9.32-16.444-20.771-16.444
			c-11.451,0-20.771,7.39-20.771,16.444C3.129,17.336,3.795,18.002,4.527,18.002z M7.057,11.744h4.594
			c0.732,0,1.332-0.599,1.332-1.332S12.384,9.08,11.651,9.08H8.854c0.599-0.666,1.198-1.265,1.93-1.797h6.791
			c0.732,0,1.332-0.599,1.332-1.332c0-0.733-0.6-1.332-1.332-1.332h-2.263c2.596-1.065,5.525-1.731,8.72-1.731
			c9.387,0,17.11,5.459,18.042,12.449H5.925C6.125,14.074,6.458,12.875,7.057,11.744z"/>
	</g>
</svg>
